<svg width="56" height="56" viewBox="0 0 56 56" fill="none" xmlns="http://www.w3.org/2000/svg">
<rect width="56" height="56" rx="28" fill="white"/>
<path d="M27.5641 7V22.1007C27.5641 22.1648 27.5 22.2289 27.4359 22.2289C26.9872 22.4249 26.6026 22.619 26.1538 22.8132C25.5769 23.0714 24.9359 23.3315 24.359 23.6557L22.2436 24.6264L20.5128 25.4048L18.3974 26.3773C17.8205 26.6374 17.2436 26.8956 16.6026 27.2198C16.1538 27.4139 15.641 27.674 15.1923 27.8681C15.1282 27.8681 15.1282 27.9322 15.0641 27.8681H15C15.1923 27.544 15.3846 27.2839 15.5769 26.9615C16.6026 25.2106 17.6923 23.4615 18.7179 21.7106C19.8077 19.8333 20.9615 17.9524 22.0513 16.0733C23.0769 14.3242 24.1026 12.5751 25.1282 10.8901C25.8974 9.59158 26.6667 8.36264 27.3718 7.0641C27.5 7.0641 27.5 7 27.5641 7Z" fill="#8C8C8C"/>
<path d="M40 27.8674C39.0384 28.5157 38.0128 29.0982 37.0513 29.6806C33.9102 31.5615 30.8333 33.3765 27.6923 35.2557C27.6282 35.2557 27.6282 35.3198 27.5641 35.3198C27.5 35.3198 27.5 35.2557 27.5 35.2557V22.2282C27.5 22.1641 27.5641 22.1641 27.6282 22.1641C27.8846 22.2923 28.141 22.4242 28.4615 22.5524C29.2307 22.9425 30.0641 23.2667 30.8333 23.6549C31.5384 23.9791 32.1795 24.3033 32.8846 24.5615C33.5897 24.8857 34.2307 25.2099 34.9359 25.534C35.5128 25.7941 36.1538 26.0524 36.7307 26.3765C37.3077 26.6366 37.9487 26.8949 38.5256 27.219C38.9743 27.4132 39.4231 27.6732 39.9359 27.8674C39.9359 27.8033 39.9359 27.8674 40 27.8674Z" fill="#02231E"/>
<path d="M27.564 48.0243C27.4999 48.0243 27.4999 48.0244 27.4358 47.9584C26.1537 46.1452 24.9358 44.3943 23.6537 42.5793L19.8076 37.1361C18.5896 35.387 17.3076 33.6379 16.0896 31.8211L15.1281 30.4602C15.1281 30.3961 15.064 30.3961 15.064 30.332C15.1281 30.332 15.1281 30.3961 15.1922 30.3961C16.9229 31.4328 18.7178 32.4694 20.4486 33.506C22.4358 34.7386 24.487 35.9053 26.4742 37.1361C26.7947 37.3302 27.1794 37.5244 27.4999 37.7185C27.564 37.7185 27.564 37.7844 27.564 37.8485V48.0243Z" fill="#8C8C8C"/>
<path d="M15 27.1889C15 27.1248 15 27.1248 15 27.1889C15.641 26.8648 16.2821 26.6065 16.9231 26.2823L19.4231 25.1157C20.0641 24.7915 20.7051 24.5333 21.3462 24.2091C22.2436 23.7549 23.2051 23.3666 24.1026 22.9124C24.7436 22.6523 25.3846 22.3281 26.0256 22.0699C26.4744 21.8758 26.9231 21.6816 27.3718 21.4215C27.4359 21.4215 27.4359 21.3574 27.5 21.3574V34.5772C27.4359 34.6432 27.4359 34.5772 27.3718 34.5772C27.1795 34.449 26.9872 34.3831 26.859 34.253L15.1282 27.2549C15.0641 27.1889 15 27.1889 15 27.1889ZM39.8077 29.5882C39.8077 29.6523 39.8077 29.6523 39.7436 29.7164C36.0256 35.0314 32.3077 40.2805 28.5897 45.5955C28.2051 46.1779 27.8205 46.6963 27.4359 47.2805V36.9747C28.2692 36.4563 29.1026 35.938 29.9359 35.4856L39.7436 29.6523C39.7436 29.5882 39.8077 29.5882 39.8077 29.5882Z" fill="#072723"/>
<path d="M27.5645 22.1654V7.06836L39.8722 27.6764C39.9363 27.7405 40.0004 27.8046 40.0004 27.8705C39.744 27.7423 39.4875 27.6105 39.167 27.4823C38.8465 27.3522 38.526 27.1581 38.2055 27.0281C38.0132 26.964 37.8209 26.8339 37.5645 26.768C37.244 26.6398 36.8593 26.4438 36.5388 26.3156C36.3465 26.2497 36.1542 26.1215 35.9619 26.0555L34.6158 25.4731C34.3593 25.3431 34.167 25.279 33.9106 25.1489C33.5901 25.0189 33.2696 24.8248 32.9491 24.6947C32.7568 24.6306 32.5645 24.5006 32.3722 24.4365L31.026 23.8522C30.7696 23.724 30.5773 23.6581 30.3209 23.5281C30.0004 23.3999 29.6799 23.2039 29.3593 23.0738C29.167 22.9456 28.9106 22.8797 28.7183 22.7515L27.5645 22.1673V22.1654Z" fill="#072723"/>
</svg>
